<?xml version="1.0" encoding="UTF-8" standalone="no"?>
<!DOCTYPE svg PUBLIC "-//W3C//DTD SVG 1.1//EN" "http://www.w3.org/Graphics/SVG/1.1/DTD/svg11.dtd">
<svg width="100%" height="100%" viewBox="0 0 32 32" version="1.1" xmlns="http://www.w3.org/2000/svg" xmlns:xlink="http://www.w3.org/1999/xlink" xml:space="preserve" style="fill-rule:evenodd;clip-rule:evenodd;stroke-linejoin:round;stroke-miterlimit:1.41421;">
    <g>
        <circle cx="4.943" cy="4.339" r="3.421"/>
        <circle cx="16.443" cy="4.177" r="3.421"/>
        <circle cx="27.631" cy="4.177" r="3.421"/>
        <path d="M31.531,14.28L31.531,8.666L28.951,8.113L27.687,9.625L26.386,8.113L23.365,8.666L23.365,14.281L20.342,14.281L20.342,8.666L17.763,8.113L16.5,9.625L15.2,8.113L12.179,8.666L12.179,14.281L8.843,14.281L8.843,8.827L6.263,8.274L5,9.787L3.7,8.275L0.679,8.827L0.679,14.28L0,14.28L0,31.115L0.509,31.115L0.509,26.701L3.53,26.148L4.831,27.661L6.094,26.148L8.674,26.701L8.674,31.115L12.01,31.115L12.01,26.54L15.031,25.986L16.332,27.499L17.596,25.986L20.175,26.54L20.175,31.115L23.198,31.115L23.198,26.54L26.219,25.986L27.52,27.5L28.784,25.987L31.364,26.541L31.364,31.116L31.873,31.116L31.873,14.28L31.531,14.28ZM4.773,25.635C2.883,25.635 1.352,24.104 1.352,22.214C1.352,20.324 2.884,18.793 4.773,18.793C6.662,18.793 8.195,20.324 8.195,22.214C8.195,24.104 6.663,25.635 4.773,25.635ZM16.273,25.473C14.382,25.473 12.852,23.942 12.852,22.052C12.852,20.162 14.384,18.631 16.273,18.631C18.162,18.631 19.695,20.162 19.695,22.052C19.695,23.942 18.163,25.473 16.273,25.473ZM27.461,25.473C25.57,25.473 24.04,23.942 24.04,22.052C24.04,20.162 25.572,18.631 27.461,18.631C29.35,18.631 30.883,20.162 30.883,22.052C30.883,23.942 29.35,25.473 27.461,25.473Z" style="fill-rule:nonzero;"/>
    </g>
</svg>
