<?xml version="1.0" encoding="iso-8859-1"?>
<!-- Generator: Adobe Illustrator 19.0.0, SVG Export Plug-In . SVG Version: 6.00 Build 0)  -->
<svg version="1.1" id="Capa_1" xmlns="http://www.w3.org/2000/svg" xmlns:xlink="http://www.w3.org/1999/xlink" x="0px" y="0px"
	 viewBox="0 0 54.309 54.309" style="enable-background:new 0 0 54.309 54.309;" xml:space="preserve">
<g>
	<g>
		<path d="M34.079,12.47c-1.106-1.108-2.652-1.8-4.342-1.798v3.232c0.808,0.001,1.525,0.323,2.057,0.852
			c0.529,0.531,0.851,1.248,0.852,2.057h3.232C35.88,15.123,35.188,13.576,34.079,12.47z"/>
	</g>
</g>
<g>
	<g>
		<path d="M49.785,20.433C49.785,9.147,40.649,0,29.376,0S8.967,9.147,8.967,20.433c0,0.754,0.044,1.498,0.122,2.23
			c-1.508,3.065-4.296,8.518-4.34,8.619c-0.145,0.323-0.225,0.68-0.225,1.057c0,1.43,1.158,2.59,2.585,2.59h2.596l-0.018,7.387
			c0,1.989,1.611,3.601,3.6,3.601l7.46-0.003l2.497,8.395l24.299-7.39l-3.676-12.112C47.523,31.114,49.785,26.042,49.785,20.433z
			 M33.616,33.616h-8.413v-4.525h8.413V33.616z M33.831,25.859h-8.842c-0.971-2.822-4.948-3.507-4.948-9.003
			c0-4.678,4.102-9.098,9.374-9.098c5.273,0,9.374,4.419,9.374,9.098C38.788,22.352,34.803,23.036,33.831,25.859z"/>
	</g>
</g>
<g>
</g>
<g>
</g>
<g>
</g>
<g>
</g>
<g>
</g>
<g>
</g>
<g>
</g>
<g>
</g>
<g>
</g>
<g>
</g>
<g>
</g>
<g>
</g>
<g>
</g>
<g>
</g>
<g>
</g>
</svg>
