<?xml version="1.0" encoding="utf-8"?>
<!-- Generator: Adobe Illustrator 16.0.0, SVG Export Plug-In . SVG Version: 6.00 Build 0)  -->
<!DOCTYPE svg PUBLIC "-//W3C//DTD SVG 1.1//EN" "http://www.w3.org/Graphics/SVG/1.1/DTD/svg11.dtd">
<svg version="1.1" id="Layer_1" xmlns="http://www.w3.org/2000/svg" xmlns:xlink="http://www.w3.org/1999/xlink" x="0px" y="0px"
	 width="884px" height="336px" viewBox="0 0 884 336" enable-background="new 0 0 884 336" xml:space="preserve">
<g>
	<g>
		<path fill="#F19D23" d="M492.153,207.638c13.459,3.398,26.917,6.801,40.378,10.193c6.807,1.716,13.619,3.417,21.069,5.286
			c-9.724,33.478-19.327,66.545-28.933,99.613c-0.434-0.093-0.867-0.185-1.302-0.276c-9.631-35.166-19.25-70.336-28.921-105.49
			c-0.547-1.989-1.518-3.862-2.292-5.79V207.638z"/>
		<path fill="#F4B122" d="M762.359,66.328c24.891,85.802,49.781,171.603,74.808,257.878c-2.386,0.176-3.718,0.356-5.051,0.358
			c-19.839,0.026-39.68,0.138-59.516-0.117c-2.219-0.029-5.394-1.59-6.464-3.414c-16.965-28.922-33.737-57.96-50.273-87.13
			c-1.422-2.509-1.864-6.425-1.072-9.205c10.46-36.732,21.241-73.372,31.902-110.047c4.373-15.041,8.644-30.111,12.982-45.162
			c0.309-1.068,0.8-2.083,1.206-3.123C761.374,66.353,761.867,66.341,762.359,66.328"/>
		<path fill="#F29C21" d="M532.225,324.159c25.06-86.412,50.013-172.458,74.966-258.503l1.201-0.079
			c3.221,10.636,6.556,21.238,9.643,31.913c12.348,42.693,24.66,85.397,36.795,128.151c0.65,2.287,0.345,5.508-0.821,7.548
			c-16.547,28.923-33.363,57.69-49.972,86.577c-1.948,3.39-3.976,4.961-8.18,4.903c-19.824-0.277-39.654-0.12-59.482-0.14
			C535.234,324.529,534.096,324.332,532.225,324.159"/>
		<path fill="#F4B121" d="M683.049,200.526c0.422-0.797,0.845-1.593,1.79-3.376c24.327,42.645,48.194,84.483,72.534,127.149h-73.09
			c-0.001-33.977-0.033-67.951,0.044-101.928c0.01-3.882,1.053-7.781,0.862-11.637C685.02,207.306,683.804,203.928,683.049,200.526"
			/>
		<path fill="#F29C21" d="M683.049,200.526c0.755,3.401,1.971,6.779,2.141,10.209c0.19,3.855-0.853,7.755-0.862,11.637
			c-0.077,33.977-0.045,67.951-0.044,101.928h-71.896c2.554-4.749,4.795-9.162,7.255-13.448
			C640.756,274.063,661.907,237.299,683.049,200.526"/>
		<path fill="#F4B224" d="M877.483,207.06c-10.762,39.549-21.184,77.846-31.604,116.142c-0.374,0.034-0.749,0.066-1.123,0.101
			c-9.634-33.209-19.268-66.417-29.026-100.058C836.068,217.914,856.225,212.631,877.483,207.06"/>
		<path fill="#F4B225" d="M683.479,9.729c3.178-2.27,3.196,1.194,3.93,2.442c9.224,15.704,18.316,31.486,27.43,47.255
			c6.562,11.351,13.218,22.649,19.544,34.131c1.071,1.945,1.396,4.875,0.847,7.04c-2.307,9.069-5.076,18.02-7.949,27.96
			c-6.619-11.249-12.84-21.833-19.073-32.411c-7.933-13.462-15.875-26.918-23.813-40.376c-0.037-12.428-0.024-24.857-0.145-37.285
			C684.223,15.564,683.748,12.648,683.479,9.729"/>
		<path fill="#F19D23" d="M683.479,9.729c0.269,2.919,0.743,5.835,0.771,8.756c0.12,12.428,0.107,24.857,0.145,37.285
			c-13.95,24.011-27.899,48.022-42.289,72.792c-3.003-10.37-5.863-19.895-8.435-29.497c-0.396-1.482,0.112-3.564,0.916-4.957
			C650.822,65.947,667.161,37.844,683.479,9.729"/>
		<path fill="#F3B225" d="M683.021,73.165c0.419-0.822,0.838-1.644,1.713-3.363c7.144,12.208,13.923,23.732,20.64,35.291
			c5.992,10.312,12.104,20.563,17.735,31.07c1.392,2.598,2.081,6.314,1.426,9.127c-2.08,8.924-4.949,17.664-8.014,28.192
			c-4.09-7.121-7.428-13.101-10.926-18.985c-7.07-11.893-14.229-23.733-21.353-35.594c0.332-14.01,0.722-28.02,0.896-42.033
			C685.155,75.644,683.761,74.4,683.021,73.165"/>
		<path fill="#F19D23" d="M683.021,73.165c0.739,1.235,2.134,2.479,2.118,3.705c-0.175,14.013-0.564,28.023-0.896,42.033
			c-10.278,17.76-20.558,35.52-31.416,54.285c-3.141-10.794-6.029-20.48-8.708-30.224c-0.376-1.368-0.183-3.289,0.523-4.5
			C657.365,116.656,670.206,94.918,683.021,73.165"/>
		<path fill="#F3B225" d="M684.257,134.499c1.155,1.109,2.639,2.028,3.417,3.358c8.408,14.361,16.84,28.713,24.898,43.27
			c1.317,2.377,1.717,5.948,1.064,8.605c-2.213,9.008-5.089,17.854-7.917,27.459c-7.406-11.922-14.447-23.259-21.488-34.593
			c0.302-1.126,0.885-2.258,0.863-3.378c-0.21-10.519-0.555-21.035-0.792-31.554C684.203,143.279,684.267,138.888,684.257,134.499"
			/>
		<path fill="#F19D24" d="M684.257,134.499c0.01,4.389-0.054,8.78,0.046,13.167c0.237,10.519,0.582,21.035,0.792,31.554
			c0.021,1.12-0.562,2.252-0.863,3.378c-2.731,4.742-5.425,9.506-8.202,14.221c-3.854,6.546-7.77,13.055-12.27,20.601
			c-3.146-10.669-6.067-20.388-8.819-30.154c-0.332-1.176-0.137-2.842,0.477-3.893C664.966,167.044,674.623,150.779,684.257,134.499
			"/>
	</g>
	<g>
		<path fill="#FFFFFF" d="M8.535,45.251H20.76c2.631,0,4.842,1.37,6.633,4.111c0.949,1.864,1.425,4.13,1.425,6.798v26.477
			c0,4.679,1.443,7.401,4.33,8.168l1.371,0.165h4.934l0.165,0.109v2.577l-0.165,0.164H26.899c-3.508,0-5.902-1.864-7.181-5.591
			c-0.622-1.827-0.932-3.581-0.932-5.263V56.543c0-3.215-1.243-5.39-3.727-6.523c-0.695-0.182-1.298-0.274-1.809-0.274H8.535
			l-0.164-0.11V45.36L8.535,45.251z"/>
		<path fill="#FFFFFF" d="M73.934,43.99h1.042c4.969,0,9.264,1.828,12.882,5.482c3.545,3.947,5.318,8.497,5.318,13.65v18.035
			c0,5.117,1.005,8.15,3.015,9.1c0,0.219,0.73,0.457,2.192,0.712h5.702l0.164,0.165v2.631l-0.164,0.165H90.543
			c-3.727,0-6.158-2.722-7.291-8.168c-0.146-0.621-0.218-1.279-0.218-1.974V64.383c0-6.395-2.285-10.544-6.853-12.445
			c-1.864-0.657-3.819-0.986-5.865-0.986c-3.765,0.109-7.475,1.992-11.129,5.646c-1.352,1.645-2.029,3.289-2.029,4.934V93.93
			l-0.164,0.164h-9.867l-0.219-0.164V55.886c0-3.216-1.316-5.391-3.947-6.524l-1.919-0.274h-4.605l-0.164-0.165v-4.275l0.164-0.165
			h12.444c3.143,0,5.573,1.736,7.291,5.208l0.494,1.7C62.038,46.566,67.795,44.099,73.934,43.99"/>
		<path fill="#FFFFFF" d="M144.431,25.79c1.426,0,2.996,0.749,4.714,2.247c1.388,1.755,2.083,4.186,2.083,7.292v42.155
			c0,6.834,2.302,11.366,6.907,13.595c0.804,0.257,1.444,0.384,1.919,0.384h1.699l0.22,0.165v2.466l-0.22,0.165h-12.992
			c-3.911,0-6.358-1.7-7.345-5.099l-0.11-0.712v-2.467h-0.164c-1.682,2.047-3.435,3.71-5.263,4.989
			c-3.289,2.193-6.488,3.289-9.594,3.289h-0.492c-7.749,0-13.742-1.937-17.981-5.811c-4.532-4.568-6.797-10.324-6.797-17.268v-0.877
			c0-7.565,3.087-13.924,9.264-19.077c4.348-3.325,8.771-4.988,13.266-4.988h1.809c3.691,0,7.418,1.06,11.183,3.179l4.769,4.002
			V37.521c0-6.432-2.083-9.648-6.249-9.648h-4.002l-0.165-0.164v-1.645l0.165-0.164h7.894L144.431,25.79z M112.362,68.987v1.645
			c0,8.26,2.576,13.778,7.729,16.555c2.119,1.097,4.531,1.645,7.236,1.645h0.933c5.188,0,9.538-3.344,13.046-10.032V61.367
			c-0.365-1.351-1.754-3.307-4.166-5.865c-2.924-2.558-5.94-3.838-9.046-3.838h-1.095c-6.506,0-11.019,3.491-13.54,10.471
			C112.727,64.62,112.362,66.904,112.362,68.987"/>
		<path fill="#FFFFFF" d="M199.633,36.699l0.11,0.055l0.055,2.083c0,4.093-1.572,6.889-4.714,8.387l-0.877,0.329
			c1.716,0.914,3.837,2.613,6.358,5.098c4.13,5.008,6.194,10.525,6.194,16.556c0,6.468-2.375,12.243-7.126,17.322
			c-5.007,4.861-10.781,7.291-17.323,7.291c-7.565,0-14.015-3.216-19.35-9.648c-3.327-4.641-4.989-9.539-4.989-14.691v-0.658
			c0-7.236,2.978-13.504,8.935-18.803c4.678-3.691,9.776-5.537,15.295-5.537l2.686,0.11c4.13-0.877,7.345-1.827,9.648-2.851
			c1.645-0.804,2.886-1.644,3.728-2.521c0.73-0.803,1.169-1.645,1.316-2.521H199.633z M169.813,69.261
			c0,6.579,2.064,11.932,6.194,16.062c2.119,1.791,4.367,2.686,6.743,2.686h0.055c4.275,0,7.858-2.85,10.745-8.552
			c1.315-3.362,1.973-6.523,1.973-9.483v-1.481c0-5.152-1.609-9.812-4.825-13.978c-2.485-2.704-5.116-4.057-7.893-4.057h-0.055
			c-4.35,0-7.894,2.705-10.635,8.113C170.58,61.86,169.813,65.424,169.813,69.261"/>
		<path fill="#FFFFFF" d="M247.052,43.99h1.042c4.969,0,9.264,1.828,12.882,5.482c3.545,3.947,5.318,8.497,5.318,13.65v18.035
			c0,5.117,1.005,8.15,3.015,9.1c0,0.219,0.73,0.457,2.192,0.712h5.702l0.164,0.165v2.631l-0.164,0.165h-13.541
			c-3.727,0-6.158-2.722-7.29-8.168c-0.147-0.621-0.219-1.279-0.219-1.974V64.383c0-6.395-2.285-10.544-6.853-12.445
			c-1.864-0.657-3.819-0.986-5.865-0.986c-3.765,0.109-7.475,1.992-11.129,5.646c-1.352,1.645-2.029,3.289-2.029,4.934V93.93
			l-0.164,0.164h-9.867l-0.219-0.164V55.886c0-3.216-1.316-5.391-3.947-6.524l-1.919-0.274h-4.605l-0.164-0.165v-4.275l0.164-0.165
			H222c3.143,0,5.573,1.736,7.291,5.208l0.494,1.7C235.155,46.566,240.913,44.099,247.052,43.99"/>
		<path fill="#FFFFFF" d="M296.937,42.784h0.823c8.113,0,14.581,3.089,19.406,9.265c1.936,3.07,2.904,6.962,2.904,11.676
			c0,7.602-2.814,13.376-8.441,17.323c-3.327,2.12-7.475,3.18-12.444,3.18c-2.96,0-5.94-0.384-8.936-1.152v0.055
			c1.608,3.07,4.623,5.409,9.046,7.017c1.425,0.475,2.594,0.713,3.508,0.713h9.977l0.164,0.164v2.686l-0.164,0.165h-15.02
			c-3.912,0-8.387-1.444-13.431-4.331c-2.011-1.461-3.582-3.088-4.714-4.879c-2.96-5.335-4.441-12.06-4.441-20.173v-1.809
			c0-4.934,1.481-8.881,4.441-11.841c1.096-1.279,2.21-2.302,3.344-3.07C287.708,44.448,292.369,42.784,296.937,42.784
			 M286.467,63.506c0,6.14,2.101,10.909,6.304,14.308c1.791,1.06,3.417,1.59,4.879,1.59c4.02,0,7.272-2.558,9.758-7.675
			c1.096-2.667,1.644-5.463,1.644-8.387c0-5.592-1.882-10.142-5.646-13.65c-1.864-1.462-3.747-2.193-5.646-2.193
			c-3.875,0-7.072,2.486-9.594,7.455C287.033,57.659,286.467,60.51,286.467,63.506"/>
		<path fill="#FFFFFF" d="M338.983,45.58h15.624l0.164,0.165v4.166l-0.164,0.164H339.86c-2.412,0-4.312,0.932-5.701,2.796
			c-0.329,0.732-0.493,1.389-0.493,1.974v0.164c0,2.887,2.447,5.628,7.346,8.223c1.425,0.877,4.201,2.376,8.332,4.495
			c1.607,0.987,3.399,2.504,5.372,4.55c2.192,2.887,3.289,5.354,3.289,7.401c0,3.764-0.402,5.994-1.205,6.687
			c-2.267,3.289-5.173,5.482-8.717,6.578c-1.645,0.439-3.418,0.659-5.318,0.659h-8.715l-0.165-0.165v-2.522l0.165-0.164h7.619
			c3.289,0,5.811-1.316,7.565-3.947c0.439-0.877,0.658-1.681,0.658-2.412V83.57c0-2.376-1.48-4.586-4.441-6.634
			c-4.641-1.936-9.191-4.512-13.649-7.729c-4.24-3.728-6.359-7.346-6.359-10.854v-0.658c0-2.85,1.388-5.792,4.166-8.826
			C332.35,46.677,335.475,45.58,338.983,45.58"/>
		<path fill="#FFFFFF" d="M358.882,45.251h12.225c2.631,0,4.842,1.37,6.633,4.111c0.949,1.864,1.425,4.13,1.425,6.798v26.477
			c0,4.679,1.443,7.401,4.33,8.168l1.371,0.165h4.934l0.165,0.109v2.577L389.8,93.82h-12.554c-3.508,0-5.902-1.864-7.181-5.591
			c-0.622-1.827-0.932-3.581-0.932-5.263V56.543c0-3.215-1.243-5.39-3.727-6.523c-0.695-0.182-1.298-0.274-1.809-0.274h-4.715
			l-0.164-0.11V45.36L358.882,45.251z"/>
		<path fill="#FFFFFF" d="M400.105,43.826h12.828c1.828,0,3.965,0.493,6.414,1.48c3.581,1.609,6.121,4.111,7.62,7.51
			c0.402,0.987,0.713,1.956,0.932,2.906c0.329,1.571,0.493,2.795,0.493,3.672l0.055,1.426c5.957-1.242,9.465-2.01,10.526-2.303
			c2.228-0.803,3.708-1.954,4.439-3.453c0.366-0.768,0.549-1.461,0.549-2.084v-0.164h0.055c0.438,1.061,0.657,2.102,0.657,3.125
			c0,2.668-1.443,4.988-4.33,6.962c-0.877,0.585-1.846,1.06-2.905,1.425c-0.842,0.256-1.993,0.494-3.454,0.713
			c-1.973,0.365-3.819,0.694-5.537,0.986v1.535V83.35c0,1.609,0.274,3.198,0.822,4.769c0.293,0.695,0.731,1.353,1.317,1.974
			c0.803,0.658,1.625,0.987,2.466,0.987h2.521l0.056,0.055v2.85l-0.056,0.055h-8.661c-3.362,0-5.701-1.809-7.017-5.427
			c-0.255-0.548-0.512-1.425-0.767-2.631l-0.109-0.658c-5.556,5.591-11.239,8.387-17.049,8.387c-2.12,0-4.258-0.402-6.414-1.206
			c-0.732-0.365-1.48-0.822-2.247-1.37c-2.816-2.266-4.221-4.97-4.221-8.114v-0.219c0-2.302,0.767-4.714,2.302-7.236
			c1.279-1.937,3.106-3.709,5.481-5.317c1.498-1.023,3.126-1.955,4.879-2.796c2.083-1.023,4.624-1.992,7.621-2.906
			c2.337-0.658,4.056-0.986,5.153-0.986c1.241-0.183,2.666-0.42,4.275-0.713v-3.892c0-1.717-0.403-3.691-1.206-5.921
			c-0.293-0.621-0.695-1.315-1.206-2.083c-0.658-0.913-1.572-1.553-2.741-1.918c-0.219-0.11-1.17-0.183-2.85-0.219l-10.691-0.33
			l-0.054-0.054v-4.55L400.105,43.826z M400.052,80.171v0.054c0,1.828,0.584,3.601,1.755,5.318c1.168,1.425,2.74,2.138,4.713,2.138
			c1.571,0,3.216-0.474,4.935-1.425l7.345-5.482V67.507c-3.07,0.586-5.793,1.28-8.168,2.084c-2.997,0.986-5.062,1.937-6.195,2.85
			c-1.205,0.951-2.174,1.956-2.904,3.015C400.546,76.991,400.052,78.563,400.052,80.171"/>
		<path fill="#FFFFFF" d="M8.02,154.231c0-8.985,4.137-14.305,10.049-17.024c7.802-3.664,18.206-2.482,22.934,0v-24.826h10.641
			v82.755c-14.779,1.3-23.881,3.192-34.403-2.128c-5.32-2.719-9.221-7.921-9.221-16.433V154.231z M41.002,148.202
			c-8.393-4.374-22.343-4.61-22.343,9.221v19.743c0,8.394,10.757,10.994,22.343,8.512V148.202z"/>
		<path fill="#FFFFFF" d="M104.247,190.998c-5.556,3.428-12.768,5.438-19.507,5.557c-11.703,0.354-20.097-4.966-20.097-17.261
			v-24.235c0-13.004,8.867-20.216,21.752-20.216c13.123,0,20.808,7.448,20.808,19.861v17.024L75.519,173.5v4.611
			c0,9.694,10.403,11.35,24.709,3.783L104.247,190.998z M96.326,154.585c0-7.093-5.674-9.457-10.049-9.457
			c-7.093,0-10.758,4.374-10.758,10.048v8.275l20.807-1.181V154.585z"/>
		<polygon fill="#FFFFFF" points="131.434,195.136 112.755,135.906 124.459,135.906 137.108,177.757 149.64,135.906 
			161.226,135.906 142.665,195.136 		"/>
		<path fill="#FFFFFF" d="M207.328,190.998c-5.556,3.428-12.768,5.438-19.507,5.557c-11.703,0.354-20.097-4.966-20.097-17.261
			v-24.235c0-13.004,8.867-20.216,21.752-20.216c13.123,0,20.808,7.448,20.808,19.861v17.024L178.6,173.5v4.611
			c0,9.694,10.403,11.35,24.709,3.783L207.328,190.998z M199.407,154.585c0-7.093-5.674-9.457-10.049-9.457
			c-7.093,0-10.758,4.374-10.758,10.048v8.275l20.807-1.181V154.585z"/>
		<rect x="222.338" y="112.381" fill="#FFFFFF" width="10.758" height="82.754"/>
		<path fill="#FFFFFF" d="M289.722,173.383c0,12.059-6.267,22.935-21.872,22.935c-15.486,0-22.225-10.875-22.225-22.935v-15.605
			c0-14.896,7.921-23.171,22.225-23.171c13.715,0,21.872,8.866,21.872,23.171V173.383z M279.082,157.778
			c0-10.522-5.911-12.531-11.232-12.531c-5.792,0-11.466,2.6-11.466,12.531v16.787c0,7.685,4.964,11.349,11.466,11.349
			c6.622,0,11.232-3.901,11.232-11.349V157.778z"/>
		<path fill="#FFFFFF" d="M302.25,219.962v-84.055h10.285l0.236,2.601c2.365-2.01,7.212-3.547,11.585-3.547
			c15.252,0,22.463,10.049,22.463,22.935v16.433c0,14.777-9.221,22.225-21.99,22.225c-6.265,0-8.866-1.182-11.821-3.31v24.117
			L302.25,219.962z M336.061,157.423c0-8.275-4.374-12.058-11.232-12.058c-6.856,0-11.703,3.783-11.821,11.467v17.024
			c0,7.211,3.428,12.177,11.821,12.177c7.685,0,11.232-4.256,11.232-13.241V157.423z"/>
		<path fill="#FFFFFF" d="M397.294,190.998c-5.556,3.428-12.768,5.438-19.507,5.557c-11.703,0.354-20.097-4.966-20.097-17.261
			v-24.235c0-13.004,8.867-20.216,21.752-20.216c13.123,0,20.808,7.448,20.808,19.861v17.024l-31.684,1.773v4.611
			c0,9.694,10.403,11.35,24.708,3.783L397.294,190.998z M389.373,154.585c0-7.093-5.674-9.457-10.049-9.457
			c-7.093,0-10.758,4.374-10.758,10.048v8.275l20.807-1.181V154.585z"/>
		<path fill="#FFFFFF" d="M412.304,195.136v-59.229h10.167l0.473,1.774c7.92-4.138,14.895-2.719,21.161-1.419l-2.601,10.285
			c-7.684-3.428-18.442-0.591-18.442,7.685v40.904H412.304z"/>
		<path fill="#FFFFFF" d="M21.87,299.69c0.462,5.232,5.848,9.85,14.619,9.85c7.387,0,13.234-4.001,13.234-10.157
			c0-17.697-37.24-9.233-39.857-35.24c-0.923-9.696,6.002-22.775,26.315-22.775c10.926,0,17.236,4.463,17.236,4.463l-4.155,12.619
			c0,0-4.309-3.694-13.081-3.694c-9.541,0-12.003,4.771-11.387,9.388c1.846,12.003,39.55,7.54,39.55,35.395
			c0,11.85-8.311,23.084-27.855,23.084c-18.313,0-28.008-10.312-28.469-21.854L21.87,299.69z"/>
		<path fill="#FFFFFF" d="M120.821,320.313l-0.461-3.387c-3.54,2.925-8.772,5.079-14.774,5.079c-18.62,0-28.931-8.926-28.931-28.162
			v-50.63h14.004v49.399c0,10.465,4.463,15.851,14.927,15.851c10.618,0,14.467-6.31,14.467-16.313v-48.938h14.003v77.1H120.821z"/>
		<path fill="#FFFFFF" d="M235.164,320.313v-48.938c0-16.928-9.849-18.929-23.084-14.004l-3.693,1.539
			c0.768,1.693,1.384,4.771,1.384,7.232v54.17h-14.003v-48.631c0-17.696-15.544-20.005-28.624-12.617v61.248H153.14v-77.1h12.773
			l0.923,2.462c10.465-5.386,24.93-5.231,33.549,3.694c2.154-1.231,6.155-3.232,6.463-3.386
			c21.544-10.003,42.319-1.539,42.319,21.083v53.246H235.164z"/>
		<path fill="#FFFFFF" d="M349.508,320.313v-48.938c0-16.928-9.849-18.929-23.084-14.004l-3.693,1.539
			c0.77,1.693,1.386,4.771,1.386,7.232v54.17h-14.005v-48.631c0-17.696-15.542-20.005-28.624-12.617v61.248h-14.004v-77.1h12.774
			l0.923,2.462c10.464-5.386,24.931-5.231,33.548,3.694c2.155-1.231,6.155-3.232,6.463-3.386
			c21.544-10.003,42.32-1.539,42.32,21.083v53.246H349.508z"/>
		<path fill="#FFFFFF" d="M381.368,218.591c0-4.001,3.693-7.541,7.848-7.541c4.001,0,7.541,3.54,7.541,7.541
			c0,4.155-3.54,7.849-7.541,7.849C385.061,226.439,381.368,222.746,381.368,218.591 M381.829,243.213h14.004v77.1h-14.004V243.213z
			"/>
		<path fill="#FFFFFF" d="M435.385,322.313c-16.005-1.384-20.93-10.311-20.93-22.314v-87.41h14.158v30.625h16.005l-3.693,13.234
			h-12.312v43.551c0,7.541,4.309,10.312,10.926,11.234L435.385,322.313z"/>
	</g>
</g>
</svg>
