<?xml version="1.0" encoding="UTF-8"?>
<svg width="440px" height="280px" viewBox="0 0 440 280" version="1.1" xmlns="http://www.w3.org/2000/svg" xmlns:xlink="http://www.w3.org/1999/xlink">
    <!-- Generator: Sketch 39.1 (31720) - http://www.bohemiancoding.com/sketch -->
    <title>molecule</title>
    <desc>Created with Sketch.</desc>
    <defs></defs>
    <g id="Page-1" stroke="none" stroke-width="1" fill="none" fill-rule="evenodd" opacity="0.0240602355">
        <g id="molecule">
            <g id="Group" transform="translate(35.908396, 52.244912) rotate(-74.000000) translate(-35.908396, -52.244912) translate(-74.591604, 12.244912)" stroke="#242840" fill="#242840">
                <g id="Oval" transform="translate(0.000000, 0.725114)">
                    <ellipse cx="114.568085" cy="50.0328978" rx="5.07580122" ry="5.07580122"></ellipse>
                    <ellipse cx="145.022892" cy="44.2319821" rx="5.07580122" ry="5.07580122"></ellipse>
                    <ellipse cx="121.094115" cy="22.4785483" rx="5.07580122" ry="5.07580122"></ellipse>
                    <ellipse cx="97.1653377" cy="56.5589279" rx="4.35068676" ry="4.35068676"></ellipse>
                    <circle cx="72.511446" cy="54.3835845" r="5.07580122"></circle>
                    <circle cx="26.829235" cy="26.829235" r="5.07580122"></circle>
                    <ellipse cx="46.7698827" cy="32.9927079" rx="5.43835845" ry="5.43835845"></ellipse>
                    <circle cx="56.9214851" cy="38.7936236" r="3.26301507"></circle>
                    <ellipse cx="48.9452261" cy="46.7698827" rx="3.26301507" ry="3.26301507"></ellipse>
                    <ellipse cx="144.660335" cy="25.0164489" rx="3.98812953" ry="3.98812953"></ellipse>
                    <ellipse cx="153.361708" cy="3.98812953" rx="3.98812953" ry="3.98812953"></ellipse>
                    <ellipse cx="75.7744611" cy="31.542479" rx="3.98812953" ry="3.98812953"></ellipse>
                    <ellipse cx="82.6630485" cy="46.4073255" rx="2.90045784" ry="2.90045784"></ellipse>
                    <ellipse cx="99.340681" cy="41.3315242" rx="2.90045784" ry="2.90045784"></ellipse>
                    <ellipse cx="164.96354" cy="17.7653043" rx="6.88858737" ry="6.88858737"></ellipse>
                    <circle cx="103.691368" cy="13.0520603" r="5.07580122"></circle>
                    <ellipse cx="78.3123617" cy="17.402747" rx="5.07580122" ry="5.07580122"></ellipse>
                    <ellipse cx="97.1653377" cy="29.0045784" rx="3.6255723" ry="3.6255723"></ellipse>
                    <ellipse cx="118.193657" cy="65.2603014" rx="5.07580122" ry="5.07580122"></ellipse>
                    <circle cx="151.548922" cy="65.2603014" r="5.07580122"></circle>
                    <ellipse cx="161.700525" cy="61.6347291" rx="2.17534338" ry="2.17534338"></ellipse>
                    <ellipse cx="157.349838" cy="76.1370183" rx="2.17534338" ry="2.17534338"></ellipse>
                </g>
                <g id="Line" transform="translate(7.976259, -0.000000)" stroke-linecap="square">
                    <path d="M48.2201116,40.968967 L41.6940815,46.7698827"></path>
                    <path d="M49.6703405,39.5187381 L64.1726297,54.7461417"></path>
                    <path d="M68.5233165,32.9927079 L74.3242322,46.7698827"></path>
                    <path d="M67.0730876,54.0210273 L74.3242322,46.7698827"></path>
                    <path d="M76.4995755,46.0447682 L91.7269792,41.6940815"></path>
                    <path d="M76.4995755,47.4949971 L90.2767503,56.9214851"></path>
                    <path d="M90.2767503,56.9214851 L106.954383,49.6703405"></path>
                    <path d="M106.954383,49.6703405 L90.2767503,29.3671356"></path>
                    <path d="M107.679497,48.9452261 L136.684076,43.8694248"></path>
                    <path d="M106.954383,52.5707984 L109.854841,65.6228586"></path>
                    <path d="M138.859419,47.4949971 L144.660335,67.0730876"></path>
                    <path d="M147.560793,64.8977442 L153.361708,62.7224008"></path>
                    <path d="M145.385449,67.798202 L149.011022,76.4995755"></path>
                    <path d="M98.2530094,13.4146175 L111.30507,22.115991"></path>
                    <path d="M115.655756,23.56622 L136.684076,25.0164489"></path>
                    <path d="M138.134305,23.56622 L144.660335,5.43835845"></path>
                    <path d="M138.859419,25.0164489 L156.987281,18.4904187"></path>
                    <path d="M39.5187381,33.7178224 L18.4904187,27.1917923"></path>
                    <path d="M106.954383,48.9452261 L112.755299,25.0164489"></path>
                    <path d="M69.9735454,19.9406477 L67.798202,32.2675935"></path>
                </g>
            </g>
            <g id="Group-Copy" transform="translate(364.742438, 51.991202) rotate(220.000000) translate(-364.742438, -51.991202) translate(253.742438, 11.991202)" stroke="#242840" fill="#242840">
                <g id="Oval" transform="translate(0.000000, 0.636204)">
                    <ellipse cx="114.892718" cy="50.1796197" rx="5.09018369" ry="5.09068606"></ellipse>
                    <ellipse cx="145.43382" cy="44.3616928" rx="5.09018369" ry="5.09068606"></ellipse>
                    <ellipse cx="121.437239" cy="22.5444668" rx="5.09018369" ry="5.09068606"></ellipse>
                    <ellipse cx="97.4406592" cy="56.7247875" rx="4.36301459" ry="4.36344519"></ellipse>
                    <ellipse cx="72.7169098" cy="54.5430649" rx="5.09018369" ry="5.09068606"></ellipse>
                    <ellipse cx="26.9052566" cy="26.907912" rx="5.09018369" ry="5.09068606"></ellipse>
                    <ellipse cx="19.9971502" cy="11.9994743" rx="3.27226094" ry="3.2725839"></ellipse>
                    <ellipse cx="46.9024069" cy="33.0894594" rx="5.45376824" ry="5.45430649"></ellipse>
                    <ellipse cx="38.5399622" cy="16.7265399" rx="2.90867639" ry="2.90896346"></ellipse>
                    <ellipse cx="57.0827742" cy="38.9073863" rx="3.27226094" ry="3.2725839"></ellipse>
                    <ellipse cx="49.0839141" cy="46.9070358" rx="3.27226094" ry="3.2725839"></ellipse>
                    <ellipse cx="145.070235" cy="25.0898099" rx="3.99943004" ry="3.99982476"></ellipse>
                    <ellipse cx="153.796264" cy="3.99982476" rx="3.99943004" ry="3.99982476"></ellipse>
                    <ellipse cx="75.9891708" cy="31.6349777" rx="3.99943004" ry="3.99982476"></ellipse>
                    <ellipse cx="82.8972772" cy="46.5434154" rx="2.90867639" ry="2.90896346"></ellipse>
                    <ellipse cx="99.6221665" cy="41.4527293" rx="2.90867639" ry="2.90896346"></ellipse>
                    <ellipse cx="5.09018369" cy="13.8175764" rx="5.09018369" ry="5.09068606"></ellipse>
                    <ellipse cx="189.791135" cy="16.7265399" rx="5.09018369" ry="5.09068606"></ellipse>
                    <ellipse cx="200.335087" cy="21.4536055" rx="3.27226094" ry="3.2725839"></ellipse>
                    <ellipse cx="192.336227" cy="30.1804959" rx="2.54509184" ry="2.54534303"></ellipse>
                    <ellipse cx="165.43097" cy="17.8174012" rx="6.90810644" ry="6.90878822"></ellipse>
                    <ellipse cx="103.985181" cy="13.0903356" rx="5.09018369" ry="5.09068606"></ellipse>
                    <ellipse cx="78.5342626" cy="17.4537808" rx="5.09018369" ry="5.09068606"></ellipse>
                    <ellipse cx="97.4406592" cy="29.0896346" rx="3.63584549" ry="3.63620433"></ellipse>
                    <ellipse cx="118.528563" cy="65.4516779" rx="5.09018369" ry="5.09068606"></ellipse>
                    <ellipse cx="151.978342" cy="65.4516779" rx="5.09018369" ry="5.09068606"></ellipse>
                    <ellipse cx="162.158709" cy="61.8154736" rx="2.1815073" ry="2.1817226"></ellipse>
                </g>
                <g id="Line" transform="translate(7.727169, 5.000000)" stroke-linecap="square">
                    <path d="M0.635275534,9.09016034 L12.2699811,7.63567861"></path>
                    <path d="M15.1786575,8.36291948 L28.9948704,11.2718829"></path>
                    <path d="M48.628436,35.9980724 L42.0839141,41.8159993"></path>
                    <path d="M50.0827742,34.5435906 L64.6261562,49.8156488"></path>
                    <path d="M68.9891708,27.9984229 L74.8065236,41.8159993"></path>
                    <path d="M67.5348326,49.088408 L74.8065236,41.8159993"></path>
                    <path d="M76.9880309,41.0887584 L92.2585819,36.7253132"></path>
                    <path d="M76.9880309,42.5432402 L90.8042437,51.9973714"></path>
                    <path d="M90.8042437,51.9973714 L107.529133,44.7249628"></path>
                    <path d="M107.529133,44.7249628 L90.8042437,24.3622185"></path>
                    <path d="M108.256302,43.9977219 L137.343066,38.9070358"></path>
                    <path d="M107.529133,47.6339262 L110.437809,60.7242618"></path>
                    <path d="M139.524573,42.5432402 L145.341926,62.1787435"></path>
                    <path d="M148.250603,59.9970209 L154.067955,57.8152983"></path>
                    <path d="M146.069095,62.9059844 L149.704941,71.6328748"></path>
                    <path d="M98.8031038,8.36291948 L111.892148,17.0898099"></path>
                    <path d="M116.255162,18.5442916 L137.343066,19.9987733"></path>
                    <path d="M138.797404,18.5442916 L145.341926,0.363269955"></path>
                    <path d="M139.524573,19.9987733 L157.703801,13.4536055"></path>
                    <path d="M184.609057,13.4536055 L192.607918,16.362569"></path>
                    <path d="M186.063396,25.0894594 L191.880748,17.8170507"></path>
                    <path d="M194.062256,19.2715325 L207.878469,33.0891089"></path>
                    <path d="M39.9024069,28.7256637 L18.814503,22.1804959"></path>
                    <path d="M13.7243193,9.09016034 L18.814503,20.7260142"></path>
                    <path d="M107.529133,43.9977219 L113.346486,19.9987733"></path>
                    <path d="M70.443509,14.9080873 L68.2620017,27.271182"></path>
                </g>
            </g>
            <g id="Group-Copy" transform="translate(317.229902, 207.585799) rotate(-171.000000) translate(-317.229902, -207.585799) translate(175.229902, 156.585799)" stroke="#242840" fill="#242840">
                <g id="Oval" transform="translate(0.000000, 0.816625)">
                    <ellipse cx="147.474988" cy="64.4099905" rx="6.53370202" ry="6.53434686"></ellipse>
                    <ellipse cx="186.677201" cy="56.9421655" rx="6.53370202" ry="6.53434686"></ellipse>
                    <ellipse cx="155.875463" cy="28.9378218" rx="6.53370202" ry="6.53434686"></ellipse>
                    <ellipse cx="125.073724" cy="72.8112936" rx="5.60031602" ry="5.60086874"></ellipse>
                    <ellipse cx="93.3386003" cy="70.0108592" rx="6.53370202" ry="6.53434686"></ellipse>
                    <ellipse cx="34.5352821" cy="34.5386905" rx="6.53370202" ry="6.53434686"></ellipse>
                    <ellipse cx="25.6681151" cy="15.402389" rx="4.20023701" ry="4.20065155"></ellipse>
                    <ellipse cx="60.2033972" cy="42.4732546" rx="7.00039502" ry="7.00108592"></ellipse>
                    <ellipse cx="49.4694582" cy="21.4699968" rx="3.73354401" ry="3.73391249"></ellipse>
                    <ellipse cx="73.2708012" cy="49.9410796" rx="4.20023701" ry="4.20065155"></ellipse>
                    <ellipse cx="63.0035552" cy="60.2093389" rx="4.20023701" ry="4.20065155"></ellipse>
                    <ellipse cx="186.210508" cy="32.2049952" rx="5.13362302" ry="5.13412967"></ellipse>
                    <ellipse cx="197.41114" cy="5.13412967" rx="5.13362302" ry="5.13412967"></ellipse>
                    <ellipse cx="97.5388373" cy="40.6062983" rx="5.13362302" ry="5.13412967"></ellipse>
                    <ellipse cx="106.406004" cy="59.7425998" rx="3.73354401" ry="3.73391249"></ellipse>
                    <ellipse cx="127.873882" cy="53.208253" rx="3.73354401" ry="3.73391249"></ellipse>
                    <ellipse cx="6.53370202" cy="17.7360843" rx="6.53370202" ry="6.53434686"></ellipse>
                    <ellipse cx="243.613747" cy="21.4699968" rx="6.53370202" ry="6.53434686"></ellipse>
                    <ellipse cx="257.147844" cy="27.5376046" rx="4.20023701" ry="4.20065155"></ellipse>
                    <ellipse cx="246.880598" cy="38.7393421" rx="3.26685101" ry="3.26717343"></ellipse>
                    <ellipse cx="277.215643" cy="48.5408624" rx="6.53370202" ry="6.53434686"></ellipse>
                    <ellipse cx="212.345316" cy="22.870214" rx="8.86716703" ry="8.86804216"></ellipse>
                    <ellipse cx="133.474198" cy="16.8026062" rx="6.53370202" ry="6.53434686"></ellipse>
                    <ellipse cx="100.805688" cy="22.4034749" rx="6.53370202" ry="6.53434686"></ellipse>
                    <ellipse cx="125.073724" cy="37.3391249" rx="4.66693002" ry="4.66739061"></ellipse>
                    <ellipse cx="152.141918" cy="84.013031" rx="6.53370202" ry="6.53434686"></ellipse>
                    <ellipse cx="195.077675" cy="84.013031" rx="6.53370202" ry="6.53434686"></ellipse>
                    <ellipse cx="208.145079" cy="79.3456404" rx="2.80015801" ry="2.80043437"></ellipse>
                    <ellipse cx="202.544763" cy="98.0152029" rx="2.80015801" ry="2.80043437"></ellipse>
                </g>
                <g id="Line" transform="translate(9.918507, 6.417943)" stroke-linecap="square">
                    <path d="M0.815432467,11.6680267 L15.7496085,9.80107042"></path>
                    <path d="M19.4831525,10.7345485 L37.2174866,14.468461"></path>
                    <path d="M62.4189087,46.2067172 L54.0184346,53.6745422"></path>
                    <path d="M64.2856807,44.339761 L82.9534007,63.9428015"></path>
                    <path d="M88.5537168,35.9384579 L96.0208048,53.6745422"></path>
                    <path d="M86.6869447,63.0093234 L96.0208048,53.6745422"></path>
                    <path d="M98.8209628,52.7410641 L118.422069,47.1401953"></path>
                    <path d="M98.8209628,54.6080203 L116.555297,66.7432359"></path>
                    <path d="M116.555297,66.7432359 L138.023175,57.4084547"></path>
                    <path d="M138.023175,57.4084547 L116.555297,31.2710672"></path>
                    <path d="M138.956561,56.4749765 L176.292001,49.9406297"></path>
                    <path d="M138.023175,61.1423672 L141.756719,77.9449734"></path>
                    <path d="M179.092159,54.6080203 L186.559247,79.8119296"></path>
                    <path d="M190.292791,77.0114952 L197.759879,74.2110609"></path>
                    <path d="M187.492633,80.7454077 L192.159563,91.9471452"></path>
                    <path d="M126.822543,10.7345485 L143.623491,21.936286"></path>
                    <path d="M149.223807,23.8032423 L176.292001,25.6701985"></path>
                    <path d="M178.158773,23.8032423 L186.559247,0.466289192"></path>
                    <path d="M179.092159,25.6701985 L202.426809,17.2688954"></path>
                    <path d="M236.962091,17.2688954 L247.229337,21.0028079"></path>
                    <path d="M238.828863,32.2045454 L246.295951,22.8697641"></path>
                    <path d="M249.096109,24.7367204 L266.830443,42.4728047"></path>
                    <path d="M51.2182766,36.871936 L24.1500825,28.4706329"></path>
                    <path d="M17.6163805,11.6680267 L24.1500825,26.6036766"></path>
                    <path d="M138.023175,56.4749765 L145.490263,25.6701985"></path>
                    <path d="M90.4204888,19.1358516 L87.6203308,35.0049797"></path>
                </g>
            </g>
            <g id="Group-Copy" transform="translate(64.283176, 293.074627) rotate(-300.000000) translate(-64.283176, -293.074627) translate(-79.716824, 241.074627)">
                <g id="Oval" transform="translate(-0.000000, 0.826886)" fill="#242840">
                    <ellipse cx="94.5114984" cy="70.8906196" rx="6.61580489" ry="6.61645783"></ellipse>
                    <ellipse cx="34.9692544" cy="34.9727057" rx="6.61580489" ry="6.61645783"></ellipse>
                    <ellipse cx="25.9906621" cy="15.5959363" rx="4.25301743" ry="4.25343718"></ellipse>
                    <ellipse cx="60.9599165" cy="43.0069759" rx="7.08836238" ry="7.08906196"></ellipse>
                    <ellipse cx="50.0910942" cy="21.73979" rx="3.78045994" ry="3.78083305"></ellipse>
                    <ellipse cx="74.1915263" cy="50.568642" rx="4.25301743" ry="4.25343718"></ellipse>
                    <ellipse cx="63.7952614" cy="60.9659329" rx="4.25301743" ry="4.25343718"></ellipse>
                    <ellipse cx="98.7645158" cy="41.1165594" rx="5.19813241" ry="5.19864544"></ellipse>
                    <ellipse cx="107.743108" cy="60.4933287" rx="3.78045994" ry="3.78083305"></ellipse>
                    <ellipse cx="129.480753" cy="53.8768709" rx="3.78045994" ry="3.78083305"></ellipse>
                    <ellipse cx="6.61580489" cy="17.958957" rx="6.61580489" ry="6.61645783"></ellipse>
                    <ellipse cx="135.151443" cy="17.0137487" rx="6.61580489" ry="6.61645783"></ellipse>
                    <ellipse cx="102.072418" cy="22.6849983" rx="6.61580489" ry="6.61645783"></ellipse>
                    <ellipse cx="126.645408" cy="37.8083305" rx="4.72557492" ry="4.72604131"></ellipse>
                </g>
                <g id="Line" transform="translate(10.043143, 6.498591)" stroke-linecap="square" stroke="#242840">
                    <path d="M0.825679237,11.8146477 L15.947519,9.92423122"></path>
                    <path d="M19.7279789,10.8694395 L37.6851636,14.6502725"></path>
                    <path d="M63.2032682,46.7873534 L54.6972333,54.3490195"></path>
                    <path d="M65.0934982,44.8969369 L83.9957978,64.7463104"></path>
                    <path d="M89.6664877,36.3900625 L97.2274076,54.3490195"></path>
                    <path d="M87.7762578,63.8011021 L97.2274076,54.3490195"></path>
                    <path d="M100.062753,53.4038112 L119.910167,47.7325617"></path>
                    <path d="M100.062753,55.2942278 L118.019937,67.5819352"></path>
                    <path d="M139.757582,58.1298525 L118.019937,31.6640212"></path>
                    <path d="M128.416202,10.8694395 L145.428272,22.2119386"></path>
                    <path d="M51.8618884,37.3352708 L24.4535538,28.8283964"></path>
                    <path d="M17.837749,11.8146477 L24.4535538,26.9379799"></path>
                    <path d="M91.5567177,19.3763138 L88.7213728,35.4448543"></path>
                </g>
            </g>
        </g>
    </g>
</svg>