<?xml version="1.0" standalone="no"?>
<!DOCTYPE svg PUBLIC "-//W3C//DTD SVG 20010904//EN"
 "http://www.w3.org/TR/2001/REC-SVG-20010904/DTD/svg10.dtd">
<svg version="1.0" xmlns="http://www.w3.org/2000/svg"
 width="850.000000pt" height="850.000000pt" viewBox="0 0 850.000000 850.000000"
 preserveAspectRatio="xMidYMid meet">
<metadata>
Created by potrace 1.11, written by Peter Selinger 2001-2013
</metadata>
<g transform="translate(0.000000,850.000000) scale(0.100000,-0.100000)"
fill="#000000" stroke="none">
<path d="M4225 7523 c-9 -10 -49 -74 -89 -143 -40 -69 -113 -195 -163 -280
-49 -85 -101 -175 -115 -200 -30 -54 -294 -509 -308 -530 -5 -8 -34 -58 -63
-110 -30 -52 -111 -192 -179 -310 -79 -137 -124 -227 -126 -248 -2 -28 158
-615 175 -645 4 -7 92 132 116 183 4 8 17 31 28 50 12 19 96 163 187 320 91
157 186 321 212 365 27 44 112 190 190 325 78 135 144 248 148 252 4 4 52 -70
107 -164 123 -211 107 -184 310 -528 93 -157 238 -403 323 -548 85 -145 156
-262 157 -260 4 4 66 216 122 413 48 174 57 231 40 278 -12 36 -117 225 -302
542 -137 236 -155 267 -191 332 -13 23 -52 90 -87 150 -35 59 -66 115 -70 123
-4 8 -13 24 -20 35 -33 54 -234 398 -247 422 -8 15 -29 51 -45 78 -17 28 -35
64 -41 80 -13 36 -45 44 -69 18z"/>
<path d="M2626 6343 c-3 -10 -21 -74 -41 -143 -20 -69 -61 -210 -91 -315 -67
-230 -163 -562 -239 -825 -31 -107 -74 -253 -95 -325 -20 -71 -40 -139 -43
-150 -3 -11 -23 -81 -45 -155 -22 -74 -42 -144 -45 -155 -6 -21 -226 -779
-300 -1035 -25 -85 -66 -225 -91 -310 -24 -85 -69 -240 -100 -345 -69 -241
-195 -673 -281 -970 -36 -126 -70 -243 -76 -260 -37 -119 -108 -379 -104 -384
10 -9 1369 -8 1396 1 32 11 79 56 99 94 8 16 51 89 94 164 43 74 90 155 104
180 22 39 152 263 330 570 77 133 251 435 397 690 68 118 128 233 133 255 6
27 4 59 -5 100 -15 70 -10 51 -63 235 -43 151 -78 274 -84 300 -2 8 -45 157
-96 330 -50 173 -93 322 -95 331 -2 8 -29 103 -60 210 -31 107 -58 201 -60
209 -2 8 -40 141 -85 295 -45 154 -83 287 -85 295 -2 8 -19 69 -38 135 -264
899 -292 989 -310 993 -8 2 -18 -5 -21 -15z"/>
<path d="M5833 6330 c-16 -19 -24 -42 -72 -215 -11 -38 -52 -180 -91 -315 -39
-135 -72 -249 -74 -255 -19 -71 -43 -153 -133 -460 -58 -198 -107 -367 -108
-375 -2 -8 -34 -116 -70 -240 -71 -240 -167 -573 -322 -1105 -99 -343 -108
-394 -83 -471 7 -22 54 -111 105 -199 120 -210 144 -251 173 -305 13 -25 27
-49 32 -55 4 -5 19 -30 32 -55 14 -25 51 -90 83 -145 51 -88 175 -303 225
-390 35 -61 270 -464 347 -595 68 -117 85 -138 123 -160 l45 -25 682 0 c375 0
685 3 688 7 4 4 -6 56 -23 115 -47 168 -141 491 -163 563 -11 36 -22 72 -24
80 -2 8 -42 150 -90 315 -49 165 -96 329 -106 365 -9 36 -31 110 -47 165 -17
55 -60 201 -96 325 -35 124 -80 279 -100 345 -19 66 -64 221 -100 345 -35 124
-85 297 -111 385 -56 191 -249 859 -270 930 -53 184 -76 264 -85 290 -9 30
-93 319 -248 858 -47 163 -89 297 -94 297 -4 0 -16 -9 -25 -20z"/>
<path d="M4228 6237 c-8 -17 -78 -138 -155 -267 -76 -129 -142 -242 -146 -250
-4 -8 -16 -28 -26 -45 -27 -43 -290 -490 -404 -686 -79 -135 -97 -173 -97
-206 0 -22 33 -154 74 -294 40 -140 81 -280 90 -311 9 -32 18 -58 20 -58 2 0
66 108 142 241 76 132 146 252 155 267 9 15 27 47 41 72 14 25 43 75 64 112
22 36 86 148 144 247 57 100 107 181 110 180 6 0 481 -794 566 -947 64 -115
99 -172 104 -172 4 0 68 204 85 270 2 8 18 65 35 125 51 177 59 225 48 286
-14 77 -9 68 -613 1107 -115 199 -213 361 -216 362 -3 0 -12 -15 -21 -33z"/>
<path d="M4169 4813 c-35 -60 -72 -124 -82 -143 -11 -19 -27 -46 -37 -60 -15
-21 -102 -169 -147 -250 -8 -14 -22 -37 -31 -52 -18 -28 -171 -289 -204 -348
-11 -19 -24 -39 -28 -45 -24 -32 -19 -72 31 -243 28 -97 69 -240 91 -317 22
-77 43 -143 47 -147 6 -6 143 212 149 239 2 7 8 13 13 13 5 0 9 4 9 10 0 5 19
40 41 77 23 38 81 137 129 221 l88 152 135 -217 c74 -120 153 -247 175 -283
23 -36 62 -101 88 -144 l48 -79 22 69 c12 38 29 96 39 129 10 33 24 79 31 102
16 49 50 173 69 251 7 29 11 77 9 107 -4 71 -22 106 -349 670 -172 297 -238
395 -264 395 -5 0 -37 -48 -72 -107z"/>
<path d="M4243 3608 c-5 -7 -22 -38 -37 -68 -16 -30 -34 -62 -40 -70 -6 -8
-16 -24 -22 -35 -56 -103 -80 -144 -95 -167 -11 -14 -19 -29 -19 -31 0 -3 -30
-57 -66 -119 -37 -62 -111 -191 -166 -287 -55 -95 -108 -187 -118 -205 -18
-29 -60 -104 -109 -189 -12 -21 -54 -95 -95 -165 -40 -70 -84 -147 -98 -172
-14 -25 -50 -88 -80 -140 -94 -163 -249 -433 -273 -475 -12 -22 -46 -80 -75
-130 -72 -124 -94 -164 -157 -282 l-54 -103 1510 0 c831 0 1511 2 1511 4 0 3
-24 47 -54 98 -78 134 -493 863 -529 928 -16 30 -33 60 -37 65 -5 6 -20 33
-35 60 -16 28 -90 158 -165 290 -439 767 -660 1157 -660 1163 0 4 -7 15 -14
25 -10 13 -15 14 -23 5z"/>
<path d="M8110 3375 c-69 -18 -188 -49 -265 -70 -77 -20 -198 -52 -270 -71
-71 -19 -137 -37 -145 -38 -67 -16 -445 -117 -448 -121 -4 -4 34 -143 88 -325
11 -36 36 -121 56 -190 19 -69 67 -233 106 -365 38 -132 72 -249 75 -260 3
-11 50 -173 105 -360 55 -187 101 -348 103 -358 2 -10 16 -57 30 -105 14 -48
28 -95 31 -105 10 -34 30 -16 46 41 19 66 153 560 208 767 35 131 56 205 180
660 131 479 250 919 250 927 0 12 -11 10 -150 -27z"/>
<path d="M236 3358 c1 -24 11 -65 23 -91 18 -41 39 -112 81 -272 5 -16 36
-129 69 -250 34 -121 63 -227 65 -235 2 -9 59 -216 126 -460 67 -245 128 -467
135 -495 14 -53 50 -185 109 -399 47 -170 65 -192 85 -109 7 27 64 226 128
443 63 217 117 402 119 410 2 8 33 116 69 240 37 124 69 234 72 245 3 11 11
41 19 66 8 25 16 54 19 65 2 10 13 48 24 84 59 198 138 476 135 479 -3 3 -86
25 -174 45 -21 5 -450 114 -798 202 -161 41 -297 74 -301 74 -4 0 -7 -19 -5
-42z"/>
</g>
</svg>
